<?xml version="1.0" encoding="utf-8"?>
<!-- Generator: Adobe Illustrator 22.0.0, SVG Export Plug-In . SVG Version: 6.00 Build 0)  -->
<svg version="1.1" id="Layer_1" xmlns="http://www.w3.org/2000/svg" xmlns:xlink="http://www.w3.org/1999/xlink" x="0px" y="0px"
	 viewBox="0 0 131.7 102.7" style="enable-background:new 0 0 131.7 102.7;" xml:space="preserve">
<style type="text/css">
	.st0{fill:#FFFFFF;}
</style>
<g>
	<path class="st0" d="M72.8,38.8c3,0.6,5.2,1.7,6.7,3.1c2.1,1.9,3.1,4.3,3.1,7.2c0,2.1-0.7,4.2-2,6.1c-1.4,2-3.2,3.4-5.6,4.3
		c-2.4,0.9-6,1.4-10.8,1.4H43.9v-1.2h1.6c1.8,0,3.1-0.6,3.9-1.7c0.5-0.7,0.7-2.3,0.7-4.7v-28c0-2.7-0.3-4.4-0.9-5.1
		c-0.8-0.9-2.1-1.4-3.7-1.4h-1.6v-1.2h18.6c3.5,0,6.3,0.3,8.4,0.8c3.2,0.8,5.6,2.1,7.3,4.1c1.7,1.9,2.5,4.2,2.5,6.7
		c0,2.2-0.7,4.1-2,5.8C77.4,36.7,75.4,38,72.8,38.8z M56.2,37.1c0.8,0.1,1.7,0.3,2.7,0.3s2.1,0.1,3.3,0.1c3.1,0,5.4-0.3,7-1
		s2.7-1.7,3.6-3.1c0.8-1.4,1.2-2.9,1.2-4.5c0-2.5-1-4.7-3.1-6.5s-5.1-2.7-9-2.7c-2.1,0-4,0.2-5.7,0.7C56.2,20.4,56.2,37.1,56.2,37.1
		z M56.2,57.7c2.5,0.6,4.9,0.9,7.3,0.9c3.8,0,6.8-0.9,8.8-2.6c2-1.7,3-3.9,3-6.4c0-1.7-0.5-3.3-1.4-4.8s-2.4-2.8-4.5-3.7
		s-4.6-1.3-7.6-1.3c-1.3,0-2.4,0-3.4,0.1c-0.9,0-1.7,0.1-2.3,0.2L56.2,57.7L56.2,57.7z"/>
</g>
<g>
	<path class="st0" d="M18.6,79.1c0,0.3,0,0.6-0.1,0.9s-0.2,0.5-0.3,0.7c-0.1,0.2-0.3,0.4-0.5,0.6s-0.4,0.3-0.7,0.4
		c-0.3,0.1-0.5,0.2-0.8,0.2s-0.6,0.1-1,0.1h-2.6c-0.1,0-0.2,0-0.3-0.1C12,81.8,12,81.7,12,81.5v-9c0-0.2,0.1-0.3,0.2-0.4
		c0.1-0.1,0.2-0.1,0.3-0.1h2.3c0.6,0,1.1,0.1,1.5,0.2c0.4,0.1,0.7,0.3,1,0.5s0.5,0.5,0.6,0.8s0.2,0.7,0.2,1.1c0,0.2,0,0.5-0.1,0.7
		s-0.1,0.4-0.3,0.6c-0.1,0.2-0.3,0.4-0.4,0.5c-0.2,0.1-0.4,0.3-0.6,0.4c0.3,0.1,0.5,0.1,0.8,0.3s0.4,0.3,0.6,0.5s0.3,0.5,0.4,0.7
		S18.6,78.8,18.6,79.1z M16.6,74.6c0-0.2,0-0.5-0.1-0.7s-0.2-0.4-0.3-0.5c-0.1-0.1-0.3-0.2-0.6-0.3C15.4,73,15.1,73,14.7,73h-1.4
		v3.3h1.5c0.3,0,0.6,0,0.8-0.1s0.4-0.2,0.5-0.4c0.1-0.2,0.2-0.3,0.3-0.5C16.6,75,16.6,74.8,16.6,74.6z M17.2,79.2
		c0-0.3,0-0.6-0.1-0.8c-0.1-0.2-0.2-0.4-0.4-0.6s-0.4-0.3-0.7-0.4c-0.3-0.1-0.6-0.1-1-0.1h-1.6v3.6h1.9c0.3,0,0.6,0,0.8-0.1
		c0.2-0.1,0.4-0.2,0.6-0.3c0.2-0.1,0.3-0.3,0.4-0.5C17.2,79.7,17.2,79.5,17.2,79.2z"/>
	<path class="st0" d="M24.6,75.3c0,0.1,0,0.2,0,0.3s0,0.1,0,0.2c0,0,0,0.1-0.1,0.1s-0.1,0-0.1,0s-0.1,0-0.2,0s-0.1,0-0.2-0.1
		c-0.1,0-0.2,0-0.3-0.1c-0.1,0-0.2,0-0.3,0c-0.1,0-0.3,0-0.4,0.1s-0.3,0.1-0.4,0.3c-0.1,0.1-0.3,0.3-0.4,0.5
		c-0.2,0.2-0.3,0.4-0.5,0.7v4.6V82l-0.1,0.1c0,0-0.1,0-0.2,0s-0.2,0-0.3,0c-0.1,0-0.2,0-0.3,0c-0.1,0-0.1,0-0.2,0s-0.1,0-0.1-0.1
		v-0.1v-7v-0.1c0,0,0-0.1,0.1-0.1s0.1,0,0.2,0s0.2,0,0.3,0c0.1,0,0.2,0,0.3,0c0.1,0,0.1,0,0.2,0c0,0,0.1,0,0.1,0.1v0.1v1
		c0.2-0.3,0.4-0.5,0.5-0.7s0.3-0.3,0.5-0.4s0.3-0.2,0.4-0.2s0.3-0.1,0.4-0.1s0.1,0,0.2,0s0.2,0,0.3,0c0.1,0,0.2,0,0.3,0.1
		c0.1,0,0.1,0.1,0.2,0.1l0.1,0.1v0.1c0,0,0,0.1,0,0.2S24.6,75.1,24.6,75.3z"/>
	<path class="st0" d="M29.2,82l-0.9,2.6c0,0.1-0.1,0.1-0.2,0.2s-0.3,0.1-0.6,0.1c-0.1,0-0.2,0-0.3,0c-0.1,0-0.1,0-0.2-0.1l-0.1-0.1
		c0-0.1,0-0.1,0-0.2l1-2.4L27.8,82l-0.1-0.1l-2.5-6.7c0-0.1-0.1-0.2-0.1-0.3s0-0.1,0.1-0.1c0,0,0.1-0.1,0.2-0.1s0.2,0,0.4,0
		s0.3,0,0.4,0s0.2,0,0.2,0c0.1,0,0.1,0.1,0.1,0.1s0,0.1,0.1,0.2l2,5.6l0,0l1.9-5.7c0-0.1,0.1-0.2,0.1-0.2s0.1,0,0.2-0.1
		c0.1,0,0.2,0,0.4,0c0.1,0,0.3,0,0.4,0s0.2,0,0.2,0.1l0.1,0.1c0,0,0,0.1,0,0.2L29.2,82z"/>
	<path class="st0" d="M36.9,81.3c0,0.2,0,0.3,0,0.4s-0.1,0.2-0.1,0.2S36.7,82,36.6,82c-0.1,0-0.2,0.1-0.3,0.1s-0.2,0-0.3,0.1
		s-0.2,0-0.4,0c-0.4,0-0.7,0-0.9-0.1c-0.3-0.1-0.5-0.2-0.6-0.4c-0.2-0.2-0.3-0.4-0.4-0.7c-0.1-0.3-0.1-0.7-0.1-1.1v-4.1h-1
		c-0.1,0-0.1,0-0.2-0.1c0-0.1-0.1-0.2-0.1-0.4c0-0.1,0-0.2,0-0.2c0-0.1,0-0.1,0.1-0.2c0,0,0-0.1,0.1-0.1h0.1h1v-1.7V73l0.1-0.1
		c0,0,0.1,0,0.2-0.1c0.1,0,0.2,0,0.3,0s0.2,0,0.3,0s0.1,0,0.2,0.1c0,0,0.1,0,0.1,0.1v0.1v1.7h1.8h0.1c0,0,0.1,0,0.1,0.1
		c0,0,0,0.1,0.1,0.2c0,0.1,0,0.2,0,0.2c0,0.2,0,0.3-0.1,0.4c0,0.1-0.1,0.1-0.2,0.1h-1.8v3.9c0,0.5,0.1,0.8,0.2,1.1s0.4,0.4,0.8,0.4
		c0.1,0,0.2,0,0.3,0s0.2,0,0.2-0.1c0.1,0,0.1-0.1,0.2-0.1c0.1,0,0.1,0,0.1,0h0.1c0,0,0,0,0.1,0.1s0,0.1,0,0.1S36.9,81.2,36.9,81.3z"
		/>
	<path class="st0" d="M44.6,78c0,0.2-0.1,0.3-0.2,0.4s-0.2,0.1-0.3,0.1h-4.6c0,0.4,0,0.7,0.1,1.1c0.1,0.3,0.2,0.6,0.4,0.8
		c0.2,0.2,0.4,0.4,0.7,0.5s0.7,0.2,1.1,0.2c0.3,0,0.6,0,0.9-0.1c0.3-0.1,0.5-0.1,0.7-0.2s0.3-0.1,0.5-0.2s0.2-0.1,0.3-0.1h0.1
		c0,0,0.1,0,0.1,0.1c0,0,0,0.1,0,0.2s0,0.1,0,0.2s0,0.1,0,0.2v0.1v0.1c0,0,0,0.1-0.1,0.1c0,0-0.1,0.1-0.3,0.1
		c-0.1,0.1-0.3,0.1-0.5,0.2S43,81.9,42.7,82c-0.3,0-0.6,0.1-0.9,0.1c-0.6,0-1.1-0.1-1.5-0.2c-0.4-0.2-0.8-0.4-1.1-0.7
		c-0.3-0.3-0.5-0.7-0.7-1.2s-0.2-1-0.2-1.7c0-0.6,0.1-1.1,0.2-1.6c0.2-0.5,0.4-0.9,0.7-1.2c0.3-0.3,0.6-0.6,1.1-0.8
		c0.4-0.2,0.9-0.3,1.4-0.3c0.6,0,1,0.1,1.4,0.3c0.4,0.2,0.7,0.4,1,0.7c0.2,0.3,0.4,0.7,0.6,1.1c0.1,0.4,0.2,0.8,0.2,1.3V78H44.6z
		 M43.3,77.6c0-0.7-0.1-1.2-0.5-1.6c-0.3-0.4-0.8-0.6-1.4-0.6c-0.3,0-0.6,0.1-0.8,0.2s-0.4,0.3-0.6,0.5c-0.2,0.2-0.3,0.4-0.4,0.7
		c-0.1,0.3-0.1,0.5-0.1,0.8H43.3z"/>
	<path class="st0" d="M58.1,76.8c0,0.9-0.1,1.6-0.3,2.3s-0.6,1.2-1,1.6s-1,0.8-1.6,1C54.6,81.9,53.9,82,53,82h-2.1
		c-0.1,0-0.2,0-0.3-0.1s-0.2-0.2-0.2-0.4v-9c0-0.2,0.1-0.3,0.2-0.4c0.1-0.1,0.2-0.1,0.3-0.1h2.3c0.9,0,1.6,0.1,2.2,0.3
		s1.1,0.6,1.5,1s0.7,0.9,0.9,1.5C58,75.4,58.1,76.1,58.1,76.8z M56.7,76.9c0-0.5-0.1-1.1-0.2-1.5c-0.1-0.5-0.3-0.9-0.6-1.2
		s-0.7-0.6-1.1-0.8s-1-0.3-1.7-0.3h-1.4V81h1.4c0.6,0,1.2-0.1,1.6-0.2c0.4-0.2,0.8-0.4,1.1-0.7s0.5-0.8,0.7-1.3
		C56.6,78.2,56.7,77.6,56.7,76.9z"/>
	<path class="st0" d="M66.1,78c0,0.2-0.1,0.3-0.2,0.4s-0.2,0.1-0.3,0.1H61c0,0.4,0,0.7,0.1,1.1c0.1,0.3,0.2,0.6,0.4,0.8
		c0.2,0.2,0.4,0.4,0.7,0.5s0.7,0.2,1.1,0.2c0.3,0,0.6,0,0.9-0.1c0.3-0.1,0.5-0.1,0.7-0.2s0.3-0.1,0.5-0.2s0.2-0.1,0.3-0.1h0.1
		c0,0,0.1,0,0.1,0.1c0,0,0,0.1,0,0.2s0,0.1,0,0.2s0,0.1,0,0.2v0.1v0.1c0,0,0,0.1-0.1,0.1c0,0-0.1,0.1-0.3,0.1
		c-0.1,0.1-0.3,0.1-0.5,0.2s-0.7,0.2-1,0.3c-0.3,0-0.6,0.1-0.9,0.1c-0.6,0-1.1-0.1-1.5-0.2c-0.4-0.2-0.8-0.4-1.1-0.7
		c-0.3-0.3-0.5-0.7-0.7-1.2s-0.2-1-0.2-1.7c0-0.6,0.1-1.1,0.2-1.6c0.2-0.5,0.4-0.9,0.7-1.2c0.3-0.3,0.6-0.6,1.1-0.8
		c0.4-0.2,0.9-0.3,1.4-0.3c0.6,0,1,0.1,1.4,0.3c0.4,0.2,0.7,0.4,1,0.7c0.2,0.3,0.4,0.7,0.6,1.1C66.1,77,66.2,77.4,66.1,78L66.1,78
		L66.1,78z M64.8,77.6c0-0.7-0.1-1.2-0.5-1.6c-0.3-0.4-0.8-0.6-1.4-0.6c-0.3,0-0.6,0.1-0.8,0.2s-0.4,0.3-0.6,0.5
		c-0.2,0.2-0.3,0.4-0.4,0.7C61,77.1,61,77.3,61,77.6H64.8z"/>
	<path class="st0" d="M72.4,79.9c0,0.4-0.1,0.7-0.2,1s-0.3,0.5-0.6,0.7c-0.2,0.2-0.5,0.3-0.9,0.4s-0.7,0.1-1.1,0.1
		c-0.2,0-0.5,0-0.7-0.1s-0.4,0-0.6,0c-0.2-0.1-0.3-0.1-0.5-0.2c-0.1-0.1-0.2-0.1-0.3-0.2c-0.1-0.1-0.1-0.1-0.1-0.2s0-0.2,0-0.4
		c0-0.1,0-0.2,0-0.2c0-0.1,0-0.1,0-0.2c0,0,0-0.1,0.1-0.1h0.1c0.1,0,0.1,0,0.3,0.1c0.1,0.1,0.2,0.1,0.4,0.2c0.2,0.1,0.4,0.2,0.6,0.2
		s0.5,0.1,0.8,0.1c0.2,0,0.4,0,0.6-0.1c0.2,0,0.3-0.1,0.5-0.2s0.2-0.2,0.3-0.3c0.1-0.1,0.1-0.3,0.1-0.5s-0.1-0.4-0.2-0.5
		s-0.2-0.3-0.4-0.4C70.4,79,70.2,79,70,78.9s-0.4-0.2-0.6-0.3c-0.2-0.1-0.4-0.2-0.6-0.3c-0.2-0.1-0.4-0.2-0.6-0.4
		c-0.2-0.2-0.3-0.4-0.4-0.6s-0.2-0.5-0.2-0.8s0.1-0.5,0.2-0.8s0.3-0.5,0.5-0.7s0.5-0.3,0.8-0.5c0.3-0.1,0.7-0.2,1.1-0.2
		c0.2,0,0.4,0,0.6,0s0.4,0.1,0.5,0.1c0.2,0,0.3,0.1,0.4,0.2s0.2,0.1,0.2,0.1c0.1,0,0.1,0.1,0.1,0.1v0.1V75c0,0,0,0.1,0,0.2
		s0,0.2,0,0.2c0,0.1,0,0.1,0,0.2c0,0,0,0.1-0.1,0.1h-0.1c0,0-0.1,0-0.2-0.1s-0.2-0.1-0.3-0.2c-0.1-0.1-0.3-0.1-0.5-0.2
		s-0.4-0.1-0.7-0.1c-0.2,0-0.4,0-0.6,0.1c-0.2,0-0.3,0.1-0.4,0.2s-0.2,0.2-0.2,0.3s-0.1,0.3-0.1,0.4c0,0.2,0.1,0.4,0.2,0.5
		s0.2,0.3,0.4,0.4c0.2,0.1,0.4,0.2,0.6,0.3c0.2,0.1,0.4,0.2,0.7,0.3c0.2,0.1,0.4,0.2,0.7,0.3s0.4,0.2,0.6,0.4
		c0.2,0.2,0.3,0.3,0.4,0.6C72.4,79.3,72.4,79.6,72.4,79.9z"/>
	<path class="st0" d="M75.6,72.4c0,0.3-0.1,0.5-0.2,0.6s-0.3,0.2-0.6,0.2c-0.3,0-0.5-0.1-0.6-0.2S74,72.7,74,72.4
		c0-0.3,0.1-0.5,0.2-0.6s0.3-0.2,0.6-0.2c0.3,0,0.5,0.1,0.6,0.2C75.6,71.9,75.6,72.1,75.6,72.4z M75.5,81.8L75.5,81.8L75.4,82
		c0,0-0.1,0-0.2,0s-0.2,0-0.3,0c-0.1,0-0.2,0-0.3,0c-0.1,0-0.1,0-0.2,0c0,0-0.1,0-0.1-0.1v-0.1v-7v-0.1l0.1-0.1c0,0,0.1,0,0.2,0
		s0.2,0,0.3,0c0.1,0,0.2,0,0.3,0c0.1,0,0.1,0,0.2,0c0,0,0.1,0,0.1,0.1v0.1V81.8z"/>
	<path class="st0" d="M83.8,75.1c0,0.2,0,0.3-0.1,0.4c0,0.1-0.1,0.1-0.2,0.1h-1c0.2,0.2,0.3,0.4,0.4,0.6s0.1,0.5,0.1,0.7
		c0,0.4-0.1,0.8-0.2,1.1s-0.3,0.6-0.6,0.8c-0.2,0.2-0.5,0.4-0.9,0.5s-0.7,0.2-1.1,0.2c-0.3,0-0.6,0-0.8-0.1s-0.5-0.2-0.6-0.3
		c-0.1,0.1-0.2,0.2-0.2,0.3c-0.1,0.1-0.1,0.3-0.1,0.4c0,0.2,0.1,0.3,0.3,0.5c0.2,0.1,0.4,0.2,0.7,0.2l1.8,0.1c0.3,0,0.7,0.1,1,0.1
		c0.3,0.1,0.5,0.2,0.8,0.4c0.2,0.2,0.4,0.4,0.5,0.6s0.2,0.5,0.2,0.8s-0.1,0.6-0.2,0.9s-0.3,0.5-0.6,0.8c-0.3,0.2-0.6,0.4-1.1,0.5
		c-0.4,0.1-0.9,0.2-1.5,0.2s-1,0-1.4-0.1s-0.7-0.2-1-0.4c-0.3-0.2-0.4-0.4-0.6-0.6c-0.1-0.2-0.2-0.5-0.2-0.8c0-0.2,0-0.3,0.1-0.5
		c0-0.2,0.1-0.3,0.2-0.5s0.2-0.3,0.3-0.4c0.1-0.1,0.3-0.3,0.4-0.4c-0.3-0.1-0.4-0.3-0.6-0.5c-0.1-0.2-0.2-0.4-0.2-0.6
		c0-0.3,0.1-0.6,0.2-0.9s0.3-0.5,0.5-0.7c-0.2-0.2-0.3-0.4-0.4-0.7s-0.1-0.5-0.1-0.9s0.1-0.8,0.2-1.1c0.1-0.3,0.3-0.6,0.6-0.8
		s0.5-0.4,0.9-0.5c0.3-0.1,0.7-0.2,1.1-0.2c0.2,0,0.4,0,0.6,0s0.4,0.1,0.5,0.1h2.1c0.1,0,0.2,0,0.2,0.1
		C83.7,74.8,83.8,74.9,83.8,75.1z M82.4,82.5c0-0.3-0.1-0.5-0.4-0.7c-0.2-0.2-0.6-0.3-1-0.3l-1.8-0.1c-0.2,0.1-0.3,0.3-0.4,0.4
		s-0.2,0.2-0.3,0.3s-0.1,0.2-0.1,0.3c0,0.1,0,0.2,0,0.3c0,0.3,0.2,0.6,0.5,0.8c0.3,0.2,0.8,0.3,1.4,0.3c0.4,0,0.7,0,1-0.1
		s0.5-0.2,0.6-0.3c0.2-0.1,0.3-0.3,0.3-0.4S82.4,82.7,82.4,82.5z M81.7,77c0-0.5-0.1-0.9-0.4-1.1c-0.3-0.3-0.6-0.4-1.1-0.4
		c-0.2,0-0.5,0-0.7,0.1s-0.3,0.2-0.5,0.3c-0.1,0.1-0.2,0.3-0.3,0.5c-0.1,0.2-0.1,0.4-0.1,0.6c0,0.5,0.1,0.8,0.4,1.1s0.6,0.4,1.1,0.4
		c0.3,0,0.5,0,0.7-0.1s0.3-0.2,0.5-0.3c0.1-0.1,0.2-0.3,0.3-0.5C81.7,77.4,81.7,77.2,81.7,77z"/>
	<path class="st0" d="M91.5,81.8L91.5,81.8L91.4,82c0,0-0.1,0-0.2,0s-0.2,0-0.3,0c-0.1,0-0.2,0-0.3,0c-0.1,0-0.1,0-0.2,0
		s-0.1,0-0.1-0.1s0-0.1,0-0.1v-4.1c0-0.4,0-0.7-0.1-1c-0.1-0.2-0.2-0.5-0.3-0.6c-0.1-0.2-0.3-0.3-0.5-0.4s-0.4-0.1-0.7-0.1
		c-0.3,0-0.6,0.1-1,0.3c-0.3,0.2-0.7,0.6-1,1v4.9v0.1L86.6,82c0,0-0.1,0-0.2,0s-0.2,0-0.3,0c-0.1,0-0.2,0-0.3,0c-0.1,0-0.1,0-0.2,0
		c0,0-0.1,0-0.1-0.1v-0.1v-7v-0.1c0,0,0-0.1,0.1-0.1s0.1,0,0.2,0s0.2,0,0.3,0c0.1,0,0.2,0,0.3,0s0.1,0,0.2,0c0,0,0.1,0,0.1,0.1v0.1
		v0.9c0.4-0.4,0.8-0.8,1.2-1c0.4-0.2,0.8-0.3,1.2-0.3c0.5,0,0.9,0.1,1.2,0.2c0.3,0.2,0.6,0.4,0.8,0.6c0.2,0.3,0.3,0.6,0.4,0.9
		s0.1,0.8,0.1,1.3L91.5,81.8L91.5,81.8z"/>
	<path class="st0" d="M102.9,81.4c0,0.1,0,0.2,0,0.3c0,0.1,0,0.1-0.1,0.2l-0.1,0.1h-0.1h-4.5c-0.1,0-0.2,0-0.3-0.1
		c-0.1-0.1-0.2-0.2-0.2-0.4v-9.4V72l0.1-0.1c0.1,0,0.1,0,0.2,0s0.2,0,0.3,0c0.1,0,0.2,0,0.3,0c0.1,0,0.2,0,0.2,0
		c0.1,0,0.1,0,0.1,0.1v0.1v8.7h3.6h0.1l0.1,0.1c0,0,0,0.1,0.1,0.2C102.9,81.2,102.9,81.3,102.9,81.4z"/>
	<path class="st0" d="M109.6,81.4c0,0.1,0,0.2,0,0.3c0,0.1,0,0.1-0.1,0.2l-0.1,0.1h-0.1h-4.5c-0.1,0-0.2,0-0.3-0.1
		c-0.1-0.1-0.2-0.2-0.2-0.4v-9.4V72l0.1-0.1c0.1,0,0.1,0,0.2,0s0.2,0,0.3,0c0.1,0,0.2,0,0.3,0c0.1,0,0.2,0,0.2,0
		c0.1,0,0.1,0,0.1,0.1v0.1v8.7h3.6h0.1l0.1,0.1c0,0,0,0.1,0.1,0.2C109.6,81.2,109.6,81.3,109.6,81.4z"/>
	<path class="st0" d="M117.8,80.6c0,0.1,0,0.2,0,0.2c0,0.1,0,0.1,0,0.2c0,0,0,0.1-0.1,0.1l-0.1,0.1c0,0-0.2,0.1-0.3,0.2
		c-0.2,0.1-0.4,0.2-0.6,0.3s-0.5,0.2-0.9,0.3c-0.3,0.1-0.7,0.1-1,0.1c-0.7,0-1.2-0.1-1.8-0.3c-0.5-0.2-1-0.5-1.4-1s-0.7-1-0.9-1.6
		s-0.3-1.3-0.3-2.2c0-0.8,0.1-1.6,0.3-2.2c0.2-0.7,0.5-1.2,0.9-1.7s0.9-0.8,1.4-1s1.1-0.4,1.8-0.4c0.3,0,0.6,0,0.9,0.1
		s0.5,0.1,0.8,0.2s0.4,0.2,0.6,0.3c0.2,0.1,0.3,0.2,0.4,0.3s0.1,0.1,0.1,0.2c0,0,0,0.1,0.1,0.1c0,0,0,0.1,0,0.2s0,0.1,0,0.2
		s0,0.2,0,0.3c0,0.1,0,0.1,0,0.2c0,0,0,0.1-0.1,0.1h-0.1c-0.1,0-0.2-0.1-0.3-0.2c-0.1-0.1-0.3-0.2-0.5-0.3c-0.2-0.1-0.5-0.2-0.8-0.3
		c-0.3-0.1-0.7-0.2-1.1-0.2c-0.5,0-0.9,0.1-1.2,0.3c-0.4,0.2-0.7,0.4-0.9,0.8c-0.3,0.3-0.5,0.8-0.6,1.3s-0.2,1.1-0.2,1.7
		s0.1,1.2,0.2,1.7s0.3,0.9,0.6,1.2c0.3,0.3,0.6,0.6,1,0.7c0.4,0.2,0.8,0.3,1.3,0.3c0.4,0,0.8,0,1.1-0.1c0.3-0.1,0.6-0.2,0.8-0.3
		c0.2-0.1,0.4-0.2,0.5-0.3c0.1-0.1,0.2-0.1,0.3-0.1h0.1c0,0,0,0,0.1,0.1c0,0,0,0.1,0,0.2S117.8,80.5,117.8,80.6z"/>
</g>
</svg>
